<svg
   width="62"
   height="62"
   viewBox="0 0 62 62"
   fill="none"
   id="docx"
   xmlns="http://www.w3.org/2000/svg"><path
     d="M15.5 0C13.3687 0 11.625 1.74375 11.625 3.875V58.125C11.625 60.2562 13.3687 62 15.5 62H54.25C56.3812 62 58.125 60.2562 58.125 58.125V15.5L42.625 0H15.5Z"
     fill="#E2E5E7"
     id="path1" /><path
     d="M46.5 15.5H58.125L42.625 0V11.625C42.625 13.7563 44.3687 15.5 46.5 15.5Z"
     fill="#B0B7BD"
     id="path2" /><path
     d="M58.125 27.125L46.5 15.5H58.125V27.125Z"
     fill="#CAD1D8"
     id="path3" /><path
     d="M50.375 50.375C50.375 51.4406 49.5031 52.3125 48.4375 52.3125H5.8125C4.74687 52.3125 3.875 51.4406 3.875 50.375V31C3.875 29.9344 4.74687 29.0625 5.8125 29.0625H48.4375C49.5031 29.0625 50.375 29.9344 50.375 31V50.375Z"
     fill="#50BEE8"
     id="path4" /><path
     d="M 6.6105,46.5 C 6.099,46.5 5.541,46.219 5.541,45.539 v -8.7982 c 0,-0.558 0.558,-0.961 1.0695,-0.961 h 3.5476 c 7.0796,0 6.9227,10.7202 0.1376,10.7202 z M 7.587,37.6688 v 6.9402 h 2.5711 c 4.1831,0 4.3671,-6.9402 0,-6.9402 z"
     fill="#ffffff"
     id="path5" /><path
     d="m 22.3095,46.655 c -2.8655,0.124 -5.8415,-1.7825 -5.8415,-5.578 0,-3.8111 2.974,-5.6847 5.8415,-5.6847 2.7106,0.1376 5.5452,2.0131 5.5452,5.6847 0,3.6735 -2.8346,5.578 -5.5452,5.578 z M 22.139,37.4073 c -1.736,0 -3.625,1.2245 -3.625,3.6716 0,2.4335 1.891,3.6735 3.625,3.6735 1.7825,0 3.6871,-1.24 3.6871,-3.6735 0,-2.449 -1.9046,-3.6716 -3.6871,-3.6716 z"
     fill="#ffffff"
     id="path6" /><path
     d="m 29.077,41.0614 c 0,-2.9896 1.8755,-5.5607 5.4386,-5.5607 1.3485,0 2.418,0.403 3.5476,1.3795 0.4185,0.3856 0.465,1.0676 0.0465,1.5016 -0.4185,0.3701 -1.054,0.3255 -1.426,-0.0465 -0.6336,-0.6665 -1.2846,-0.8506 -2.1681,-0.8506 -2.3851,0 -3.5301,1.6895 -3.5301,3.5786 0,1.922 1.1295,3.6871 3.5301,3.6871 0.8835,0 1.705,-0.3585 2.418,-0.9921 0.4786,-0.372 1.1451,-0.1879 1.4241,0.1861 0.248,0.341 0.37,0.9144 -0.1705,1.455 -1.085,1.0094 -2.3851,1.2109 -3.6735,1.2109 -3.7472,0 -5.4367,-2.5594 -5.4367,-5.5489 z"
     fill="#ffffff"
     id="path7" /><path
     d="M48.4375 52.3125H11.625V54.25H48.4375C49.5031 54.25 50.375 53.3781 50.375 52.3125V50.375C50.375 51.4406 49.5031 52.3125 48.4375 52.3125Z"
     fill="#CAD1D8"
     id="path8" /><path
     d="m 44.310047,39.544541 2.697,-3.377 c 0.8041,-1.0521 2.3696,0.2945 1.488,1.302 -0.928,1.1005 -1.9045,2.294 -2.8365,3.5146 l 3.162,3.935 c 0.8506,1.1625 -0.8525,2.2785 -1.6895,1.1315 l -2.85,-3.656 -2.8036,3.7335 c -0.7905,1.1296 -2.542,-0.1395 -1.6566,-1.1935 l 3.1136,-3.9505 c -0.9765,-1.2226 -1.922,-2.4141 -2.8656,-3.5146 -0.9765,-1.1625 0.837,-2.3541 1.5481,-1.2691 z"
     fill="#ffffff"
     id="path5-2" /></svg>
