<svg
   width="62"
   height="62"
   viewBox="0 0 62 62"
   fill="none"
   id="jpeg"
   xmlns="http://www.w3.org/2000/svg"
   ><path
     d="M15.5 0C13.3687 0 11.625 1.74375 11.625 3.875V58.125C11.625 60.2562 13.3687 62 15.5 62H54.25C56.3812 62 58.125 60.2562 58.125 58.125V15.5L42.625 0H15.5Z"
     fill="#E2E5E7"
     id="path1" /><path
     d="M46.5 15.5H58.125L42.625 0V11.625C42.625 13.7563 44.3687 15.5 46.5 15.5Z"
     fill="#B0B7BD"
     id="path2" /><path
     d="M58.125 27.125L46.5 15.5H58.125V27.125Z"
     fill="#CAD1D8"
     id="path3" /><path
     d="M50.375 50.375C50.375 51.4406 49.5031 52.3125 48.4375 52.3125H5.8125C4.74687 52.3125 3.875 51.4406 3.875 50.375V31C3.875 29.9344 4.74687 29.0625 5.8125 29.0625H48.4375C49.5031 29.0625 50.375 29.9344 50.375 31V50.375Z"
     fill="#F15642"
     id="path4"
     style="fill:#ff00ff" /><path
     d="m 15.0591,43.847883 c 0.03279,3.28406 -5.377756,3.445582 -7.358065,1.934989 -0.473552,-0.358157 -0.459202,-0.940109 -0.199049,-1.299977 0.37125,-0.343181 0.787402,-0.462566 1.275304,-0.09114 1.176705,0.741132 4.20281,1.298266 4.418061,-0.585375 z"
     fill="#ffffff"
     id="path5"/><path
     d="m 15.063316,43.869799 c 0,0.441029 -0.4426,1.166717 -0.998102,1.166717 -0.507885,0 -0.936415,-0.375845 -0.936415,-0.815235 V 37.529026 H 8.813711 c -1.553355,0 -1.587144,-1.749026 0,-1.749026 h 5.249558 c 0.5555,0 0.999901,0.332389 0.999901,0.81351 l 0.0053,7.203438 z"
     fill="#ffffff"
     id="path6"/><path
     d="M 44.445631,45.500086 C 44.0399,45.335715 44.012843,45.037946 44.067989,44.483319 l 0.0044,-2.225361 -3.554908,-0.01016 c -1.248956,-0.0035 -1.276125,-1.801306 0,-1.801306 h 4.220844 c 0.446644,0 0.760713,0.275506 0.803959,0.837827 0.122061,1.587169 0.190133,4.737073 -0.82803,4.324592 z"
     fill="#ffffff"
     id="path7"/><path
     d="M48.4375 52.3125H11.625V54.25H48.4375C49.5031 54.25 50.375 53.3781 50.375 52.3125V50.375C50.375 51.4406 49.5031 52.3125 48.4375 52.3125Z"
     fill="#CAD1D8"
     id="path8" /><path
     d="m 35.930287,41.358644 c 0,-2.999247 1.871778,-5.578644 5.427808,-5.578644 1.345823,0 2.413201,0.404301 3.54056,1.383951 0.417668,0.386845 0.464076,1.071046 0.04641,1.506446 -0.417669,0.371295 -1.051908,0.32655 -1.42317,-0.04665 -0.632341,-0.66865 -1.28205,-0.853344 -2.163796,-0.853344 -2.380368,0 -3.523095,1.694951 -3.523095,3.590149 0,1.928202 1.127258,3.698998 3.523095,3.698998 0.881746,0 2.215859,0.0014 2.692178,-0.694176 1.248716,-1.782458 0.86385,-0.489633 1.142297,-0.114428 0.247507,0.3421 0.36826,0.876356 -0.170162,1.459696 -1.082847,1.012657 -2.380367,1.214807 -3.66621,1.214807 -3.739765,0 -5.425911,-2.567658 -5.425911,-5.566807 z"
     fill="#ffffff"
     id="path9"/><path
     d="m 17.07095,36.8495 c 0,-0.5115 0.403,-1.0695 1.0521,-1.0695 h 3.5785 c 2.015,0 3.8285,1.3485 3.8285,3.9331 0,2.449 -1.8135,3.813 -3.8285,3.813 h -2.5865 v 2.046 c 0,0.682 -0.434,1.0676 -0.992,1.0676 -0.5115,0 -1.0521,-0.3856 -1.0521,-1.0676 z m 2.0441,0.8815 v 3.8595 h 2.5865 c 1.0385,0 1.86,-0.9164 1.86,-1.8774 0,-1.0831 -0.8215,-1.9821 -1.86,-1.9821 z"
     fill="#ffffff"
     id="path10" /><path
     d="m 28.961595,37.775332 v 2.453054 h 3.950602 c 0.558,0 1.116,0.55586 1.116,1.094385 0,0.509538 -0.558,0.926433 -1.116,0.926433 h -3.950601 v 3.240621 c 0,0.540419 -0.3855,0.955321 -0.927999,0.955321 -0.682001,0 -1.0986,-0.414902 -1.0986,-0.955321 v -8.766442 c 0,-0.553868 0.418501,-0.957314 1.0986,-0.957314 h 5.438501 c 0.682001,0 1.085,0.403446 1.085,0.957314 0,0.494097 -0.402999,1.049957 -1.085,1.049957 h -4.510501 z m 0.336521,0.0171 v 2.453053 h 3.950602 c 0.558,0 1.116,0.555859 1.116,1.094386 0,0.509538 -0.558,0.926433 -1.116,0.926433 h -3.9506 v 3.24062 c 0,0.540419 -0.385501,0.955322 -0.927999,0.955322 -0.682001,0 -1.0986,-0.414903 -1.0986,-0.955322 v -8.766442 c 0,-0.553867 0.4185,-0.957313 1.0986,-0.957313 h 5.438499 c 0.682001,0 1.085,0.403446 1.085,0.957313 0,0.494097 -0.402999,1.049957 -1.085,1.049957 h -4.5105 z"
     fill="#ffffff"
     id="path11"/><path
     d="m 28.961078,44.80665 v -2.508297 h 3.950789 c 0.558028,0 1.116054,-0.568378 1.116054,-1.119032 0,-0.521013 -0.558027,-0.947296 -1.116053,-0.947296 h -3.95079 v -3.313602 c 0,-0.552589 -0.385519,-0.976835 -0.928044,-0.976835 -0.682032,0 -1.098652,0.424246 -1.098652,0.976835 v 8.963868 c 0,0.566341 0.41852,0.978873 1.098652,0.978873 h 5.438762 c 0.682032,0 1.085051,-0.412532 1.085051,-0.978873 0,-0.505224 -0.403019,-1.073603 -1.085051,-1.073603 h -4.510718 z m 0.336537,-0.01748 v -2.508295 h 3.950789 c 0.558027,0 1.116053,-0.568377 1.116053,-1.119032 0,-0.521013 -0.558027,-0.947297 -1.116053,-0.947297 h -3.950789 v -3.313601 c 0,-0.55259 -0.385519,-0.976835 -0.928044,-0.976835 -0.682032,0 -1.098652,0.424245 -1.098652,0.976835 v 8.963867 c 0,0.566341 0.41852,0.978874 1.098652,0.978874 h 5.438759 c 0.682033,0 1.085052,-0.412533 1.085052,-0.978874 0,-0.505223 -0.403019,-1.073602 -1.085052,-1.073602 h -4.510715 z"
     fill="#ffffff"
     id="path12"/></svg>
