<svg
   width="62"
   height="62"
   viewBox="0 0 62 62"
   fill="none"
   id="png"
   xmlns="http://www.w3.org/2000/svg"
     ><path
     d="M15.5 0C13.3687 0 11.625 1.74375 11.625 3.875V58.125C11.625 60.2562 13.3687 62 15.5 62H54.25C56.3812 62 58.125 60.2562 58.125 58.125V15.5L42.625 0H15.5Z"
     fill="#E2E5E7"
     id="path1" /><path
     d="M46.5 15.5H58.125L42.625 0V11.625C42.625 13.7563 44.3687 15.5 46.5 15.5Z"
     fill="#B0B7BD"
     id="path2" /><path
     d="M58.125 27.125L46.5 15.5H58.125V27.125Z"
     fill="#CAD1D8"
     id="path3" /><path
     d="M50.375 50.375C50.375 51.4406 49.5031 52.3125 48.4375 52.3125H5.8125C4.74687 52.3125 3.875 51.4406 3.875 50.375V31C3.875 29.9344 4.74687 29.0625 5.8125 29.0625H48.4375C49.5031 29.0625 50.375 29.9344 50.375 31V50.375Z"
     fill="#F15642"
     id="path4"
     style="fill:#ff00ff" /><path
     d="m 42.745344,45.500086 c -0.405731,-0.164371 -0.432788,-0.46214 -0.377642,-1.016767 l 0.0044,-2.225361 -3.554908,-0.01016 c -1.248956,-0.0035 -1.276125,-1.801306 0,-1.801306 h 4.220844 c 0.446644,0 0.760713,0.275506 0.803959,0.837827 0.122061,1.587169 0.190133,4.737073 -0.82803,4.324592 z"
     fill="#ffffff"
     id="path7-7"/><path
     d="M48.4375 52.3125H11.625V54.25H48.4375C49.5031 54.25 50.375 53.3781 50.375 52.3125V50.375C50.375 51.4406 49.5031 52.3125 48.4375 52.3125Z"
     fill="#CAD1D8"
     id="path8" /><path
     d="m 34.23,41.358644 c 0,-2.999247 1.871778,-5.578644 5.427808,-5.578644 1.345823,0 2.413201,0.404301 3.54056,1.383951 0.417668,0.386845 0.464076,1.071046 0.04641,1.506446 -0.417669,0.371295 -1.051908,0.32655 -1.42317,-0.04665 -0.632341,-0.66865 -1.28205,-0.853344 -2.163796,-0.853344 -2.380368,0 -3.523095,1.694951 -3.523095,3.590149 0,1.928202 1.127258,3.698998 3.523095,3.698998 0.881746,0 2.215859,0.0014 2.692178,-0.694176 1.248716,-1.782458 0.86385,-0.489633 1.142297,-0.114428 0.247507,0.3421 0.36826,0.876356 -0.170162,1.459696 -1.082847,1.012657 -2.380367,1.214807 -3.66621,1.214807 -3.739765,0 -5.425911,-2.567658 -5.425911,-5.566807 z"
     fill="#ffffff"
     id="path7-1"/><path
     d="m 12.322,36.8495 c 0,-0.5115 0.403,-1.0695 1.0521,-1.0695 h 3.5785 c 2.015,0 3.8285,1.3485 3.8285,3.9331 0,2.449 -1.8135,3.813 -3.8285,3.813 h -2.5865 v 2.046 c 0,0.682 -0.434,1.0676 -0.992,1.0676 -0.5115,0 -1.0521,-0.3856 -1.0521,-1.0676 z m 2.0441,0.8815 v 3.8595 h 2.5865 c 1.0385,0 1.86,-0.9164 1.86,-1.8774 0,-1.0831 -0.8215,-1.9821 -1.86,-1.9821 z"
     fill="#ffffff"
     id="path5-8" /><path
     d="m 31.7467,46.6417 c 0.49436,-0.04031 0.93,-0.3856 0.93,-1.0695 v -8.7207 c 0,-0.806 -0.684,-1.0715 -0.93,-1.0715 -0.4476,0 -1.007304,0.321958 -0.988028,0.913088 l 0.06809,7.084036 L 23.832,36.1675 C 23.3185,35.534 22.065,35.78 22.065,36.8515 v 8.7207 c 0,0.6839 0.434,1.0695 0.928,1.0695 0.558,0 0.997388,-0.385621 0.992,-1.0695 l -0.04742,-6.018859 c 7.261324,7.144924 7.07703,7.148047 7.80912,7.088359 z"
     fill="#ffffff"
     id="path6"/></svg>
