<svg
   width="62"
   height="62"
   viewBox="0 0 62 62"
   fill="none"
   version="1.1"
   id="txt"
   xmlns="http://www.w3.org/2000/svg">
  <path
     d="M15.5 0C13.3687 0 11.625 1.74375 11.625 3.875V58.125C11.625 60.2562 13.3687 62 15.5 62H54.25C56.3812 62 58.125 60.2562 58.125 58.125V15.5L42.625 0H15.5Z"
     fill="#E2E5E7"
     id="path1" />
  <path
     d="M46.5 15.5H58.125L42.625 0V11.625C42.625 13.7563 44.3687 15.5 46.5 15.5Z"
     fill="#B0B7BD"
     id="path2" />
  <path
     d="M58.125 27.125L46.5 15.5H58.125V27.125Z"
     fill="#CAD1D8"
     id="path3" />
  <path
     d="M50.375 50.375C50.375 51.4406 49.5031 52.3125 48.4375 52.3125H5.8125C4.74687 52.3125 3.875 51.4406 3.875 50.375V31C3.875 29.9344 4.74687 29.0625 5.8125 29.0625H48.4375C49.5031 29.0625 50.375 29.9344 50.375 31V50.375Z"
     fill="#A066AA"
     id="path4" />
  <path
     d="m 14.884475,37.7174 h -2.7106 c -1.3465,0 -1.3465,-1.982 0,-1.982 h 7.3277 c 1.3775,0 1.3775,1.982 0,1.982 h -2.5711 v 7.8217 c 0,1.3466 -2.046,1.3795 -2.046,0 z"
     fill="#ffffff"
     id="path5" />
  <path
     d="m 37.730475,37.717 h -2.7106 c -1.3465,0 -1.3465,-1.982 0,-1.982 h 7.3277 c 1.3775,0 1.3775,1.982 0,1.982 h -2.5711 v 7.8217 c 0,1.3466 -2.046,1.3795 -2.046,0 z"
     fill="#ffffff"
     id="path6" />
  <path
     d="M48.4375 52.3125H11.625V54.25H48.4375C49.5031 54.25 50.375 53.3781 50.375 52.3125V50.375C50.375 51.4406 49.5031 52.3125 48.4375 52.3125Z"
     fill="#CAD1D8"
     id="path7" />
  <path
     d="m 27.268047,39.706756 2.697,-3.377 c 0.8041,-1.0521 2.3696,0.2945 1.488,1.302 -0.928,1.1005 -1.9045,2.294 -2.8365,3.5146 l 3.162,3.935 c 0.8506,1.1625 -0.8525,2.2785 -1.6895,1.1315 l -2.85,-3.656 -2.8036,3.7335 c -0.7905,1.1296 -2.542,-0.1395 -1.6566,-1.1935 l 3.1136,-3.9505 c -0.9765,-1.2226 -1.922,-2.4141 -2.8656,-3.5146 -0.9765,-1.1625 0.837,-2.3541 1.5481,-1.2691 z"
     fill="#ffffff"
     id="path8" />
</svg>
