<svg
   width="62"
   height="62"
   viewBox="0 0 62 62"
   fill="none"
   id="xls"
   xmlns="http://www.w3.org/2000/svg"
>
  <path
     d="M15.5 0C13.3687 0 11.625 1.74375 11.625 3.875V58.125C11.625 60.2562 13.3687 62 15.5 62H54.25C56.3812 62 58.125 60.2562 58.125 58.125V15.5L42.625 0H15.5Z"
     fill="#E2E5E7"
     id="path1" />
  <path
     d="M46.5 15.5H58.125L42.625 0V11.625C42.625 13.7563 44.3687 15.5 46.5 15.5Z"
     fill="#B0B7BD"
     id="path2" />
  <path
     d="M58.125 27.125L46.5 15.5H58.125V27.125Z"
     fill="#CAD1D8"
     id="path3" />
  <path
     d="M50.375 50.375C50.375 51.4406 49.5031 52.3125 48.4375 52.3125H5.8125C4.74687 52.3125 3.875 51.4406 3.875 50.375V31C3.875 29.9344 4.74687 29.0625 5.8125 29.0625H48.4375C49.5031 29.0625 50.375 29.9344 50.375 31V50.375Z"
     fill="#50BEE8"
     id="path4" />
  <path
     d="m 15.897111,39.498 2.696994,-3.377 c 0.804097,-1.0521 2.369599,0.2945 1.488001,1.302 -0.928002,1.1005 -1.904506,2.294 -2.836505,3.5146 l 3.162002,3.935 c 0.8506,1.1625 -0.8525,2.2785 -1.689493,1.1315 l -2.850013,-3.656 -2.803594,3.7335 c -0.790504,1.1296 -2.542006,-0.1395 -1.656595,-1.1935 l 3.113599,-3.9505 C 13.545002,39.715 12.599496,38.5235 11.655903,37.423 10.679399,36.2605 12.492896,35.0689 13.204,36.1539 Z"
     fill="#ffffff"
     id="path5"
     style="stroke-width:1" />
  <path
     d="M48.4375 52.3125H11.625V54.25H48.4375C49.5031 54.25 50.375 53.3781 50.375 52.3125V50.375C50.375 51.4406 49.5031 52.3125 48.4375 52.3125Z"
     fill="#CAD1D8"
     id="path6" />
  <path
     d="m 32.074863,38.189201 c 0.3565,-3.007 4.8941,-3.5475 7.0312,-1.9045 1.054,0.8505 -0.0601,2.199 -0.992,1.517 -1.1451,-0.7266 -3.7491,-1.0675 -4.0746,0.5406 -0.4185,2.542 6.3221,1.0869 6.2117,5.208 -0.1085,3.935 -5.8087,4.0261 -7.9477,2.261 -0.5115,-0.4185 -0.496,-1.0985 -0.215,-1.519 0.401,-0.401 0.8505,-0.5405 1.3775,-0.1065 1.271,0.866 4.5396,1.517 4.7721,-0.684 -0.1996,-2.2901 -6.6437,-0.9125 -6.1632,-5.3126 z"
     fill="#ffffff"
     id="path7" />
  <path
     d="m 22.639,36.6725 c 0,-0.5115 0.434,-0.9455 0.9765,-0.9455 0.496,0 0.9145,0.4359 0.9145,0.9455 v 7.7616 h 4.2141 c 1.517,0 1.55,2.0285 0,2.0285 h -5.1267 c -0.5425,0 -0.9765,-0.3855 -0.9765,-0.9435 v -8.8466 z"
     fill="#ffffff"
     id="path8" />
</svg>
