<svg
   width="62"
   height="62"
   viewBox="0 0 62 62"
   fill="none"
   id="zip"
   xmlns="http://www.w3.org/2000/svg"><path
     d="M15.5 0C13.3687 0 11.625 1.74375 11.625 3.875V58.125C11.625 60.2562 13.3687 62 15.5 62H54.25C56.3812 62 58.125 60.2562 58.125 58.125V15.5L42.625 0H15.5Z"
     fill="#E2E5E7"
     id="path1" /><path
     d="M46.5 15.5H58.125L42.625 0V11.625C42.625 13.7563 44.3687 15.5 46.5 15.5Z"
     fill="#B0B7BD"
     id="path2" /><path
     d="M58.125 27.125L46.5 15.5H58.125V27.125Z"
     fill="#CAD1D8"
     id="path3" /><path
     d="m 50.353852,50.177594 c 0,1.0656 -0.8719,1.9375 -1.9375,1.9375 H 5.7913524 c -1.06563,0 -1.9375,-0.8719 -1.9375,-1.9375 v -19.375 c 0,-1.0656 0.87187,-1.9375 1.9375,-1.9375 H 48.416352 c 1.0656,0 1.9375,0.8719 1.9375,1.9375 z"
     fill="#d200f7"
     id="path4"
     style="fill:#008080" /><path
     d="m 16.1588,37.7174 c -1.3465,0 -1.3465,-1.982 0,-1.982 h 7.3277 c 1.3775,0 1.3775,1.982 0,1.982 z"
     fill="#ffffff"
     id="path5"/><path
     d="m 16.158875,46.598181 c -1.3465,0 -1.3465,-1.982 0,-1.982 h 7.3277 c 1.3775,0 1.3775,1.982 0,1.982 z"
     fill="#ffffff"
     id="path5-7"/><path
     d="M26.3423 36.7098C26.3423 35.4388 28.3883 35.3923 28.3883 36.7098V45.5525C28.3883 46.839 26.3423 46.87 26.3423 45.5525V36.7098Z"
     fill="white"
     id="path6" /><path
     d="m 22.765309,36.491538 c 1.042166,-1.183565 2.446173,-0.147851 1.365887,1.079006 l -7.250594,8.234334 c -1.054867,1.197987 -2.446172,0.147848 -1.365888,-1.079007 z"
     fill="#ffffff"
     id="path6-3"/><path
     d="m 48.416885,52.116483 h -36.8125 v 1.9375 h 36.8125 c 1.0656,0 1.9375,-0.8719 1.9375,-1.9375 v -1.9375 c 0,1.0656 -0.8719,1.9375 -1.9375,1.9375 z"
     fill="#cad1d8"
     id="path8" /><path
     d="m 31.116,36.8475 c 0,-0.5115 0.403,-1.0695 1.0521,-1.0695 h 3.5785 c 2.015,0 3.8285,1.3485 3.8285,3.9331 0,2.449 -1.8135,3.813 -3.8285,3.813 h -2.5865 v 2.046 c 0,0.682 -0.434,1.0676 -0.992,1.0676 -0.5115,0 -1.0521,-0.3856 -1.0521,-1.0676 z m 2.0441,0.8815 v 3.8595 h 2.5865 c 1.0385,0 1.86,-0.9164 1.86,-1.8774 0,-1.0831 -0.8215,-1.9821 -1.86,-1.9821 z"
     fill="#ffffff"
     id="path5-2" /></svg>
